{
	"asset":{
		"generator":"Khronos glTF Blender I/O v3.5.30",
		"version":"2.0"
	},
	"extensionsUsed":[
		"KHR_materials_specular",
		"KHR_materials_ior"
	],
	"scene":0,
	"scenes":[
		{
			"name":"Scene",
			"nodes":[
				0
			]
		}
	],
	"nodes":[
		{
			"mesh":0,
			"name":"04.001",
			"rotation":[
				0.5002095699310303,
				0.5012487173080444,
				-0.4987626373767853,
				0.49977612495422363
			],
			"scale":[
				0.0014999998966231942,
				0.0015000001294538379,
				0.0015000001294538379
			],
			"translation":[
				-0.03550708666443825,
				0.10236398875713348,
				0.0003994418366346508
			]
		}
	],
	"materials":[
		{
			"doubleSided":true,
			"extensions":{
				"KHR_materials_specular":{
					"specularColorFactor":[
						2.371357614441398,
						2.371357614441398,
						2.371357614441398
					]
				},
				"KHR_materials_ior":{
					"ior":1.4500000476837158
				}
			},
			"name":"white gl",
			"pbrMetallicRoughness":{
				"baseColorTexture":{
					"index":0
				},
				"metallicFactor":0,
				"roughnessFactor":0.592786431312561
			}
		},
		{
			"doubleSided":true,
			"name":"Material.006",
			"pbrMetallicRoughness":{
				"baseColorFactor":[
					0.453387051820755,
					0.05269891023635864,
					0.03325324505567551,
					1
				],
				"metallicFactor":0,
				"roughnessFactor":0.5
			}
		}
	],
	"meshes":[
		{
			"name":"Mesh.027",
			"primitives":[
				{
					"attributes":{
						"POSITION":0,
						"TEXCOORD_0":1,
						"NORMAL":2
					},
					"indices":3,
					"material":0
				},
				{
					"attributes":{
						"POSITION":4,
						"TEXCOORD_0":5,
						"NORMAL":6
					},
					"indices":7,
					"material":1
				}
			]
		}
	],
	"textures":[
		{
			"sampler":0,
			"source":0
		}
	],
	"images":[
		{
			"bufferView":4,
			"mimeType":"image/jpeg",
			"name":"wood 110"
		}
	],
	"accessors":[
		{
			"bufferView":0,
			"componentType":5126,
			"count":1315,
			"max":[
				28.031566619873047,
				27.766931533813477,
				136.61424255371094
			],
			"min":[
				-28.03156852722168,
				4.55425500869751,
				-55.68627166748047
			],
			"type":"VEC3"
		},
		{
			"bufferView":1,
			"componentType":5126,
			"count":1315,
			"type":"VEC2"
		},
		{
			"bufferView":2,
			"componentType":5126,
			"count":1315,
			"type":"VEC3"
		},
		{
			"bufferView":3,
			"componentType":5123,
			"count":7824,
			"type":"SCALAR"
		},
		{
			"bufferView":5,
			"componentType":5126,
			"count":521,
			"max":[
				10.138995170593262,
				27.550081253051758,
				179.93356323242188
			],
			"min":[
				-10.138995170593262,
				19.104949951171875,
				136.61422729492188
			],
			"type":"VEC3"
		},
		{
			"bufferView":6,
			"componentType":5126,
			"count":521,
			"type":"VEC2"
		},
		{
			"bufferView":7,
			"componentType":5126,
			"count":521,
			"type":"VEC3"
		},
		{
			"bufferView":8,
			"componentType":5123,
			"count":2880,
			"type":"SCALAR"
		}
	],
	"bufferViews":[
		{
			"buffer":0,
			"byteLength":15780,
			"byteOffset":0,
			"target":34962
		},
		{
			"buffer":0,
			"byteLength":10520,
			"byteOffset":15780,
			"target":34962
		},
		{
			"buffer":0,
			"byteLength":15780,
			"byteOffset":26300,
			"target":34962
		},
		{
			"buffer":0,
			"byteLength":15648,
			"byteOffset":42080,
			"target":34963
		},
		{
			"buffer":0,
			"byteLength":216265,
			"byteOffset":57728
		},
		{
			"buffer":0,
			"byteLength":6252,
			"byteOffset":273996,
			"target":34962
		},
		{
			"buffer":0,
			"byteLength":4168,
			"byteOffset":280248,
			"target":34962
		},
		{
			"buffer":0,
			"byteLength":6252,
			"byteOffset":284416,
			"target":34962
		},
		{
			"buffer":0,
			"byteLength":5760,
			"byteOffset":290668,
			"target":34963
		}
	],
	"samplers":[
		{
			"magFilter":9729,
			"minFilter":9987
		}
	],
	"buffers":[
		{
			"byteLength":296428,
			"uri":"data:application/octet-stream;base64,"
		}
	]
}
