{
	"asset":{
		"generator":"Khronos glTF Blender I/O v3.5.30",
		"version":"2.0"
	},
	"scene":0,
	"scenes":[
		{
			"name":"Scene",
			"nodes":[
				0
			]
		}
	],
	"nodes":[
		{
			"mesh":0,
			"name":"05",
			"rotation":[
				0.49916207790374756,
				0.5019438862800598,
				-0.4980672299861908,
				0.5008180737495422
			],
			"scale":[
				0.0015000001294538379,
				0.001500000013038516,
				0.001500000013038516
			],
			"translation":[
				-0.03244812786579132,
				0.10113901644945145,
				0.00046882376773282886
			]
		}
	],
	"materials":[
		{
			"doubleSided":true,
			"name":"Material.006",
			"pbrMetallicRoughness":{
				"baseColorFactor":[
					0.453387051820755,
					0.05269891023635864,
					0.03325324505567551,
					1
				],
				"metallicFactor":0,
				"roughnessFactor":0.5
			}
		},
		{
			"doubleSided":true,
			"name":"Material.005",
			"pbrMetallicRoughness":{
				"baseColorTexture":{
					"index":0
				},
				"metallicFactor":0,
				"roughnessFactor":0.5
			}
		}
	],
	"meshes":[
		{
			"name":"Mesh.021",
			"primitives":[
				{
					"attributes":{
						"POSITION":0,
						"TEXCOORD_0":1,
						"NORMAL":2
					},
					"indices":3,
					"material":0
				},
				{
					"attributes":{
						"POSITION":4,
						"TEXCOORD_0":5,
						"NORMAL":6
					},
					"indices":7,
					"material":1
				}
			]
		}
	],
	"textures":[
		{
			"sampler":0,
			"source":0
		}
	],
	"images":[
		{
			"bufferView":8,
			"mimeType":"image/jpeg",
			"name":"wood 110"
		}
	],
	"accessors":[
		{
			"bufferView":0,
			"componentType":5126,
			"count":521,
			"max":[
				10.138995170593262,
				27.550081253051758,
				179.93356323242188
			],
			"min":[
				-10.138995170593262,
				19.104949951171875,
				137.76470947265625
			],
			"type":"VEC3"
		},
		{
			"bufferView":1,
			"componentType":5126,
			"count":521,
			"type":"VEC2"
		},
		{
			"bufferView":2,
			"componentType":5126,
			"count":521,
			"type":"VEC3"
		},
		{
			"bufferView":3,
			"componentType":5123,
			"count":2880,
			"type":"SCALAR"
		},
		{
			"bufferView":4,
			"componentType":5126,
			"count":1445,
			"max":[
				28.503658294677734,
				27.604320526123047,
				137.7647247314453
			],
			"min":[
				-28.503673553466797,
				4.554255485534668,
				-39.19691467285156
			],
			"type":"VEC3"
		},
		{
			"bufferView":5,
			"componentType":5126,
			"count":1445,
			"type":"VEC2"
		},
		{
			"bufferView":6,
			"componentType":5126,
			"count":1445,
			"type":"VEC3"
		},
		{
			"bufferView":7,
			"componentType":5123,
			"count":8592,
			"type":"SCALAR"
		}
	],
	"bufferViews":[
		{
			"buffer":0,
			"byteLength":6252,
			"byteOffset":0,
			"target":34962
		},
		{
			"buffer":0,
			"byteLength":4168,
			"byteOffset":6252,
			"target":34962
		},
		{
			"buffer":0,
			"byteLength":6252,
			"byteOffset":10420,
			"target":34962
		},
		{
			"buffer":0,
			"byteLength":5760,
			"byteOffset":16672,
			"target":34963
		},
		{
			"buffer":0,
			"byteLength":17340,
			"byteOffset":22432,
			"target":34962
		},
		{
			"buffer":0,
			"byteLength":11560,
			"byteOffset":39772,
			"target":34962
		},
		{
			"buffer":0,
			"byteLength":17340,
			"byteOffset":51332,
			"target":34962
		},
		{
			"buffer":0,
			"byteLength":17184,
			"byteOffset":68672,
			"target":34963
		},
		{
			"buffer":0,
			"byteLength":216265,
			"byteOffset":85856
		}
	],
	"samplers":[
		{
			"magFilter":9729,
			"minFilter":9987
		}
	],
	"buffers":[
		{
			"byteLength":302124,
			"uri":"data:application/octet-stream;base64,"
		}
	]
}
