{
	"asset":{
		"generator":"Khronos glTF Blender I/O v3.5.30",
		"version":"2.0"
	},
	"scene":0,
	"scenes":[
		{
			"name":"Scene",
			"nodes":[
				0
			]
		}
	],
	"nodes":[
		{
			"mesh":0,
			"name":"06.001",
			"rotation":[
				0.49879637360572815,
				0.49879708886146545,
				-0.5012008547782898,
				0.5012000799179077
			],
			"scale":[
				0.001500000013038516,
				0.001500000013038516,
				0.001500000013038516
			],
			"translation":[
				-0.03296541050076485,
				0.10263904929161072,
				-0.001188628375530243
			]
		}
	],
	"materials":[
		{
			"doubleSided":true,
			"name":"Material.006",
			"pbrMetallicRoughness":{
				"baseColorFactor":[
					0.453387051820755,
					0.05269891023635864,
					0.03325324505567551,
					1
				],
				"metallicFactor":0,
				"roughnessFactor":0.5
			}
		},
		{
			"doubleSided":true,
			"name":"Material.010",
			"pbrMetallicRoughness":{
				"baseColorTexture":{
					"index":0
				},
				"metallicFactor":0,
				"roughnessFactor":0.5
			}
		}
	],
	"meshes":[
		{
			"name":"Mesh.028",
			"primitives":[
				{
					"attributes":{
						"POSITION":0,
						"TEXCOORD_0":1,
						"NORMAL":2
					},
					"indices":3,
					"material":0
				},
				{
					"attributes":{
						"POSITION":4,
						"TEXCOORD_0":5,
						"NORMAL":6
					},
					"indices":7,
					"material":1
				}
			]
		}
	],
	"textures":[
		{
			"sampler":0,
			"source":0
		}
	],
	"images":[
		{
			"bufferView":8,
			"mimeType":"image/jpeg",
			"name":"wood 110"
		}
	],
	"accessors":[
		{
			"bufferView":0,
			"componentType":5126,
			"count":521,
			"max":[
				10.138995170593262,
				27.550081253051758,
				179.93356323242188
			],
			"min":[
				-10.138995170593262,
				19.104949951171875,
				138.33157348632812
			],
			"type":"VEC3"
		},
		{
			"bufferView":1,
			"componentType":5126,
			"count":521,
			"type":"VEC2"
		},
		{
			"bufferView":2,
			"componentType":5126,
			"count":521,
			"type":"VEC3"
		},
		{
			"bufferView":3,
			"componentType":5123,
			"count":2880,
			"type":"SCALAR"
		},
		{
			"bufferView":4,
			"componentType":5126,
			"count":717,
			"max":[
				24.15903663635254,
				27.90630340576172,
				138.3315887451172
			],
			"min":[
				-24.159040451049805,
				4.866876125335693,
				-39.7838249206543
			],
			"type":"VEC3"
		},
		{
			"bufferView":5,
			"componentType":5126,
			"count":717,
			"type":"VEC2"
		},
		{
			"bufferView":6,
			"componentType":5126,
			"count":717,
			"type":"VEC3"
		},
		{
			"bufferView":7,
			"componentType":5123,
			"count":4224,
			"type":"SCALAR"
		}
	],
	"bufferViews":[
		{
			"buffer":0,
			"byteLength":6252,
			"byteOffset":0,
			"target":34962
		},
		{
			"buffer":0,
			"byteLength":4168,
			"byteOffset":6252,
			"target":34962
		},
		{
			"buffer":0,
			"byteLength":6252,
			"byteOffset":10420,
			"target":34962
		},
		{
			"buffer":0,
			"byteLength":5760,
			"byteOffset":16672,
			"target":34963
		},
		{
			"buffer":0,
			"byteLength":8604,
			"byteOffset":22432,
			"target":34962
		},
		{
			"buffer":0,
			"byteLength":5736,
			"byteOffset":31036,
			"target":34962
		},
		{
			"buffer":0,
			"byteLength":8604,
			"byteOffset":36772,
			"target":34962
		},
		{
			"buffer":0,
			"byteLength":8448,
			"byteOffset":45376,
			"target":34963
		},
		{
			"buffer":0,
			"byteLength":216265,
			"byteOffset":53824
		}
	],
	"samplers":[
		{
			"magFilter":9729,
			"minFilter":9987
		}
	],
	"buffers":[
		{
			"byteLength":270092,
			"uri":"data:application/octet-stream;base64,"
		}
	]
}
